<?xml version="1.0" encoding="utf-8"?>
<!-- Generator: Adobe Illustrator 22.0.0, SVG Export Plug-In . SVG Version: 6.00 Build 0)  -->
<svg version="1.1" id="Layer_1" xmlns="http://www.w3.org/2000/svg" xmlns:xlink="http://www.w3.org/1999/xlink" x="0px" y="0px"
	 viewBox="0 0 754 201" style="enable-background:new 0 0 754 201;" xml:space="preserve">
<style type="text/css">
	.st0{fill:url(#SVGID_1_);}
	.st1{opacity:0.3;}
	.st2{fill:url(#SVGID_2_);}
	.st3{opacity:0.7;}
	.st4{fill:url(#SVGID_3_);}
	.st5{opacity:0.1;}
	.st6{fill:url(#SVGID_4_);}
	.st7{fill:url(#SVGID_5_);}
	.st8{fill:url(#SVGID_6_);}
	.st9{opacity:0.4;}
	.st10{fill:url(#SVGID_7_);}
	.st11{opacity:0.2;}
	.st12{fill:url(#SVGID_8_);}
	.st13{fill:#FFFFFF;}
</style>
<g>
	<g>
		<linearGradient id="SVGID_1_" gradientUnits="userSpaceOnUse" x1="50.8338" y1="14.7896" x2="150.5397" y2="187.4853">
			<stop  offset="0" style="stop-color:#02D753"/>
			<stop  offset="5.376340e-03" style="stop-color:#02D753"/>
			<stop  offset="0.8817" style="stop-color:#00E953"/>
			<stop  offset="1" style="stop-color:#00EC53"/>
		</linearGradient>
		<circle class="st0" cx="100.7" cy="101.1" r="99.7"/>
	</g>
	<g class="st1">
		<radialGradient id="SVGID_2_" cx="100.3933" cy="101.137" r="83.5414" gradientUnits="userSpaceOnUse">
			<stop  offset="0" style="stop-color:#000000"/>
			<stop  offset="0.3726" style="stop-color:#020202"/>
			<stop  offset="0.5069" style="stop-color:#090909"/>
			<stop  offset="0.6026" style="stop-color:#141414"/>
			<stop  offset="0.68" style="stop-color:#252525"/>
			<stop  offset="0.7463" style="stop-color:#3B3B3B"/>
			<stop  offset="0.805" style="stop-color:#575757"/>
			<stop  offset="0.8581" style="stop-color:#777777"/>
			<stop  offset="0.9069" style="stop-color:#9D9D9D"/>
			<stop  offset="0.9523" style="stop-color:#C8C8C8"/>
			<stop  offset="0.9926" style="stop-color:#F6F6F6"/>
			<stop  offset="1" style="stop-color:#FFFFFF"/>
		</radialGradient>
		<ellipse class="st2" cx="100.4" cy="101.1" rx="83.5" ry="83.5"/>
	</g>
	<g class="st3">
		<radialGradient id="SVGID_3_" cx="100.3933" cy="102.0625" r="83.5416" gradientUnits="userSpaceOnUse">
			<stop  offset="0" style="stop-color:#000000"/>
			<stop  offset="8.490340e-02" style="stop-color:#090909"/>
			<stop  offset="0.2228" style="stop-color:#212121"/>
			<stop  offset="0.3966" style="stop-color:#484848"/>
			<stop  offset="0.5993" style="stop-color:#7F7F7F"/>
			<stop  offset="0.8236" style="stop-color:#C4C4C4"/>
			<stop  offset="1" style="stop-color:#FFFFFF"/>
		</radialGradient>
		<ellipse class="st4" cx="100.4" cy="102.1" rx="83.5" ry="83.5"/>
	</g>
	<g class="st5">
		<radialGradient id="SVGID_4_" cx="100.3933" cy="98.3623" r="83.5416" gradientUnits="userSpaceOnUse">
			<stop  offset="0" style="stop-color:#000000"/>
			<stop  offset="0.3726" style="stop-color:#020202"/>
			<stop  offset="0.5069" style="stop-color:#090909"/>
			<stop  offset="0.6026" style="stop-color:#141414"/>
			<stop  offset="0.68" style="stop-color:#252525"/>
			<stop  offset="0.7463" style="stop-color:#3B3B3B"/>
			<stop  offset="0.805" style="stop-color:#575757"/>
			<stop  offset="0.8581" style="stop-color:#777777"/>
			<stop  offset="0.9069" style="stop-color:#9D9D9D"/>
			<stop  offset="0.9523" style="stop-color:#C8C8C8"/>
			<stop  offset="0.9926" style="stop-color:#F6F6F6"/>
			<stop  offset="1" style="stop-color:#FFFFFF"/>
		</radialGradient>
		<ellipse class="st6" cx="100.4" cy="98.4" rx="83.5" ry="83.5"/>
	</g>
	<g class="st5">
		<radialGradient id="SVGID_5_" cx="100.565" cy="106.292" r="79.6821" gradientUnits="userSpaceOnUse">
			<stop  offset="0.6828" style="stop-color:#000000"/>
			<stop  offset="0.9247" style="stop-color:#000000"/>
			<stop  offset="0.9528" style="stop-color:#020202"/>
			<stop  offset="0.9629" style="stop-color:#090909"/>
			<stop  offset="0.9701" style="stop-color:#141414"/>
			<stop  offset="0.9759" style="stop-color:#252525"/>
			<stop  offset="0.9809" style="stop-color:#3B3B3B"/>
			<stop  offset="0.9853" style="stop-color:#575757"/>
			<stop  offset="0.9893" style="stop-color:#777777"/>
			<stop  offset="0.993" style="stop-color:#9D9D9D"/>
			<stop  offset="0.9964" style="stop-color:#C8C8C8"/>
			<stop  offset="0.9994" style="stop-color:#F6F6F6"/>
			<stop  offset="1" style="stop-color:#FFFFFF"/>
		</radialGradient>
		<ellipse class="st7" cx="100.6" cy="106.3" rx="79.7" ry="79.7"/>
	</g>
	<g>
		<linearGradient id="SVGID_6_" gradientUnits="userSpaceOnUse" x1="44.2198" y1="45.8901" x2="156.9077" y2="158.5781">
			<stop  offset="0" style="stop-color:#03FF9C"/>
			<stop  offset="1" style="stop-color:#0AFF3A"/>
		</linearGradient>
		<ellipse class="st8" cx="100.6" cy="102.2" rx="79.7" ry="79.7"/>
	</g>
	<g class="st9">
		<radialGradient id="SVGID_7_" cx="100.7844" cy="101.4717" r="51.3666" gradientUnits="userSpaceOnUse">
			<stop  offset="0.5645" style="stop-color:#000000"/>
			<stop  offset="0.7268" style="stop-color:#020202"/>
			<stop  offset="0.7853" style="stop-color:#090909"/>
			<stop  offset="0.8269" style="stop-color:#141414"/>
			<stop  offset="0.8606" style="stop-color:#252525"/>
			<stop  offset="0.8895" style="stop-color:#3B3B3B"/>
			<stop  offset="0.9151" style="stop-color:#575757"/>
			<stop  offset="0.9382" style="stop-color:#777777"/>
			<stop  offset="0.9595" style="stop-color:#9D9D9D"/>
			<stop  offset="0.9792" style="stop-color:#C8C8C8"/>
			<stop  offset="0.9968" style="stop-color:#F6F6F6"/>
			<stop  offset="1" style="stop-color:#FFFFFF"/>
		</radialGradient>
		<circle class="st10" cx="100.8" cy="101.5" r="51.4"/>
	</g>
	<g class="st11">
		<radialGradient id="SVGID_8_" cx="101.1621" cy="104.5144" r="51.3658" gradientUnits="userSpaceOnUse">
			<stop  offset="0.8978" style="stop-color:#000000"/>
			<stop  offset="0.9359" style="stop-color:#020202"/>
			<stop  offset="0.9496" style="stop-color:#090909"/>
			<stop  offset="0.9594" style="stop-color:#141414"/>
			<stop  offset="0.9673" style="stop-color:#252525"/>
			<stop  offset="0.9741" style="stop-color:#3B3B3B"/>
			<stop  offset="0.9801" style="stop-color:#575757"/>
			<stop  offset="0.9855" style="stop-color:#777777"/>
			<stop  offset="0.9905" style="stop-color:#9D9D9D"/>
			<stop  offset="0.9951" style="stop-color:#C8C8C8"/>
			<stop  offset="0.9992" style="stop-color:#F6F6F6"/>
			<stop  offset="1" style="stop-color:#FFFFFF"/>
		</radialGradient>
		<circle class="st12" cx="101.2" cy="104.5" r="51.4"/>
	</g>
	<g>
		<circle class="st13" cx="101.1" cy="102.2" r="49.7"/>
	</g>
	<g>
		<path class="st13" d="M291.9,128.5c0,20.5-10.8,30.7-32.3,30.7c-21.4,0-32.1-10.2-32.1-30.7V61.1c0-0.9,3-1.3,9-1.3
			c6,0,9,0.4,9,1.3v28c4.8-3.2,10.3-4.7,16.5-4.7c9.9,0,17.5,2.7,22.6,8.2c4.8,5.2,7.3,12.5,7.3,21.9V128.5z M273.3,128.5v-14.1
			c0-5.3-1.2-9.3-3.7-12.2c-2.3-2.6-5.4-4-9.3-4c-9.8,0-14.7,5.2-14.7,15.5v14.7c0,10.9,4.6,16.3,13.9,16.3
			C268.6,144.9,273.3,139.4,273.3,128.5z"/>
		<path class="st13" d="M321.1,74c0,1-3,1.6-9,1.6c-6,0-9-0.5-9-1.6V61.4c0-1,3-1.6,9-1.6c6,0,9,0.5,9,1.6V74z M321.1,156.9
			c0,0.9-3,1.3-9,1.3c-6,0-9-0.4-9-1.3V86.6c0-0.9,3-1.3,9-1.3c6,0,9,0.4,9,1.3V156.9z"/>
		<path class="st13" d="M400.7,131.9c0,8.9-3.5,15.9-10.5,20.8c-6.4,4.4-14.6,6.6-24.8,6.6c-10,0-18.1-2.2-24.2-6.7
			c-6.6-4.8-9.9-11.7-9.9-20.7v-20.2c0-8.9,3.5-15.8,10.4-20.7c6.3-4.4,14.5-6.6,24.7-6.6c10.1,0,18.2,2.2,24.3,6.6
			c6.7,4.8,10.1,11.8,10.1,20.8V131.9z M381.6,130.8v-18c0-4.8-1.5-8.6-4.5-11.2c-2.7-2.3-6.2-3.5-10.6-3.5c-4.5,0-8.3,1.2-11.2,3.6
			c-3.2,2.6-4.9,6.3-4.9,11.1v18c0,4.8,1.5,8.6,4.5,11.2c2.7,2.3,6.2,3.5,10.5,3.5c4.5,0,8.3-1.2,11.3-3.6
			C380,139.3,381.6,135.6,381.6,130.8z"/>
		<path class="st13" d="M462.8,141.5c-3.4,11.9-13.3,17.8-29.8,17.8c-5.7,0-11.4-1.2-17.1-3.5c-2.6-1-5.8-2.7-9.4-5
			c-0.3-0.1-0.4-0.4-0.4-0.8c0-0.9,0.8-3,2.5-6.3c2-4,3.5-6,4.3-6c0.1,0,0.2,0,0.3,0.1c8.8,5.1,15.5,7.7,19.9,7.7
			c6.2,0,9.9-1.9,10.9-5.7c0.3-1,0.4-2,0.4-2.9c0-3.3-1.9-5.7-5.6-7.1c-3.9-1.3-9.4-3.2-16.6-5.7c-4.5-1.8-8.1-4.4-10.6-8
			c-2.3-3.3-3.4-6.9-3.4-10.8c0-7.1,2.6-12.5,7.9-16.1c4.6-3.2,10.6-4.8,18-4.7c9.1,0,17.1,1.8,24.1,5.1c0.3,0.2,0.5,0.6,0.5,1.2
			c0,0.9-0.5,2.9-1.6,6c-1.5,4.4-2.6,6.5-3.4,6.2c-3.2-1.1-6.4-2.1-9.6-3.2c-4-1.3-7.2-1.9-9.8-1.9c-4.4,0-7,1.3-8,3.8
			c-0.3,0.6-0.4,1.3-0.4,1.9c0,2.2,1.2,3.8,3.6,4.8c5.4,2,11.8,4.4,19.3,7.3c9.9,4.4,14.8,11.1,14.8,20.1
			C463.6,137.7,463.4,139.6,462.8,141.5z"/>
		<path class="st13" d="M530.7,149.3c-7.7,6.7-16.9,10-27.6,10c-9.2,0-16.7-2.1-22.4-6.4c-6.7-4.9-10-12-10-21.3v-20.8
			c0-8.2,3.2-14.8,9.6-19.7c6-4.5,13.5-6.8,22.4-6.8c11.9,0,21.1,2.7,27.5,8.2c0.1,0.1,0.2,0.3,0.2,0.6c0,0.8-1,2.9-2.9,6.3
			c-2.2,3.8-3.7,5.8-4.5,5.8c0,0-0.8-0.6-2.6-1.9c-2.1-1.4-4.2-2.6-6.4-3.5c-3.2-1.3-6.4-1.9-9.7-1.9c-4.7,0-8.5,1.4-11.3,4.1
			c-2.9,2.9-4.4,6.9-4.4,12.1v13.9c0,11.3,5.2,17,15.7,17c3.4,0,6.4-0.6,9.2-1.8c1.9-0.9,5-2.7,9.3-5.6c0.1-0.1,0.3-0.1,0.4-0.1
			c0.6,0,2.1,1.7,4.3,5.1c2.3,3.4,3.4,5.4,3.4,6C530.9,149,530.8,149.2,530.7,149.3z"/>
		<path class="st13" d="M606.5,131.9c0,8.9-3.5,15.9-10.5,20.8c-6.4,4.4-14.6,6.6-24.8,6.6c-10,0-18.1-2.2-24.2-6.7
			c-6.6-4.8-9.9-11.7-9.9-20.7v-20.2c0-8.9,3.5-15.8,10.4-20.7c6.3-4.4,14.5-6.6,24.7-6.6c10.1,0,18.2,2.2,24.3,6.6
			c6.7,4.8,10.1,11.8,10.1,20.8V131.9z M587.3,130.8v-18c0-4.8-1.5-8.6-4.5-11.2c-2.7-2.3-6.2-3.5-10.6-3.5c-4.5,0-8.3,1.2-11.2,3.6
			c-3.2,2.6-4.9,6.3-4.9,11.1v18c0,4.8,1.5,8.6,4.5,11.2c2.7,2.3,6.2,3.5,10.5,3.5c4.5,0,8.3-1.2,11.3-3.6
			C585.7,139.3,587.3,135.6,587.3,130.8z"/>
		<path class="st13" d="M615.4,86.6c0-0.9,3-1.3,9.1-1.3c6.1,0,9.1,0.4,9.1,1.3V92c4.9-5.1,10.7-7.7,17.6-7.7
			c19.5,0,29.2,8.9,29.2,26.8v21c0,9-2.9,15.8-8.7,20.6c-5.2,4.3-12.2,6.5-20.9,6.5c-7.8,0-13.5-1.7-16.9-5.2v29.3
			c0,0.9-3.1,1.4-9.3,1.4c-6.2,0-9.3-0.5-9.3-1.4V86.6z M634,111.2v23.7c0,3,1.2,5.5,3.6,7.4c2.6,2.1,6.2,3.1,11,3.1
			c3.8,0,7-1.1,9.5-3.2c2.7-2.2,4.1-5.1,4.1-8.7v-22.7c0-3.4-1.3-6.4-3.9-8.9c-2.6-2.5-5.9-3.8-9.8-3.8c-4.2,0-7.7,1.3-10.5,4
			C635.3,104.7,634,107.7,634,111.2z"/>
		<path class="st13" d="M753.7,111.3v17.6h-45.8v4c0,3.6,1.3,6.6,4.1,9c2.7,2.4,6,3.6,9.8,3.6c7.4,0,14.9-2.2,22.6-6.6
			c0.7-0.4,2.1,1.6,4.3,5.8c1.6,3.4,2.5,5.4,2.5,6.2c0,0.3-0.1,0.6-0.3,0.7c-2.2,1.6-6,3.3-11.4,4.9c-6.2,1.8-12.1,2.7-17.6,2.7
			c-9.2,0-16.9-2.5-23-7.5c-6.3-5.1-9.5-11.9-9.5-20.2v-20.2c0-8.3,3.2-15,9.6-20c6.1-4.7,13.8-7.1,23.2-7.1c9.2,0,16.5,1.9,22,5.8
			C750.5,94.8,753.7,101.9,753.7,111.3z M735.9,116.2v-5.3c0-3.6-1.3-6.7-4-9.1c-2.6-2.4-5.8-3.7-9.5-3.7c-3.9,0-7.4,1.2-10.4,3.7
			c-3,2.5-4.5,5.4-4.5,8.8v5.6H735.9z"/>
	</g>
</g>
</svg>
